<svg xmlns="http://www.w3.org/2000/svg" viewBox="0 0 32 32">
  <rect width="32" height="32" rx="7" fill="#121210"/>
  <path transform="translate(10.11 6) scale(0.031164)" fill="#fdf8ce" d="M245.82,221.04h92.51l8.15-45.98h-92.54l14.67-82.55c2.96-17.23,8.26-27.08,16.88-33.98,8.6-6.9,22.01-12.56,39.25-12.56h45.07L377.96,0h-54.41c-3.94,0-7.78.09-11.55.26-34.82,1.56-62.11,10.33-81.88,26.33-21.15,17.11-35.51,45.04-43.13,83.72h-.01l-.11.63c-.23,1.18-.47,2.34-.69,3.53l-10.61,60.59h-93.36l-7.42,45.98h92.64l-58.07,328.21c-2.96,17.23-8.26,27.08-16.88,33.98-8.6,6.9-22.01,12.56-39.25,12.56H8.15l-8.15,45.98h54.41c3.94,0,7.78-.09,11.55-.26,34.82-1.56,62.11-10.33,81.88-26.33,21.15-17.11,35.51-45.04,43.13-83.72h.01l.11-.63c.23-1.18.47-2.34.69-3.53l54.03-306.25Z"/>
</svg>
